<?xml version="1.0" encoding="UTF-8"?>
<svg xmlns="http://www.w3.org/2000/svg" width="4462.000000pt" height="928.000000pt" viewBox="0 0 4462 928">
<g transform="translate(0,928) scale(1,-1)">
  <path d="M38 9033 l-38 -4 0 -361 0 -360 24 -19 c47 -37 48 -76 41 -1264 -3
-605 -5 -1253 -4 -1440 1 -187 3 -891 6 -1565 l3 -1225 -21 -70 c-30 -96 -40
-148 -46 -232 -4 -61 -2 -73 11 -73 9 0 23 -12 33 -26 15 -23 17 -58 17 -288
0 -143 -4 -355 -9 -471 -10 -263 -9 -368 4 -393 6 -11 22 -22 37 -25 15 -2
300 -5 635 -5 436 0 613 4 623 12 19 15 25 70 27 232 1 124 2 137 23 161 30
35 50 27 134 -56 38 -37 87 -81 108 -96 22 -16 52 -40 67 -54 15 -14 45 -35
66 -46 69 -36 225 -113 261 -128 19 -9 77 -34 128 -56 51 -23 101 -41 110 -41
9 0 41 -9 70 -20 30 -11 75 -23 100 -26 26 -3 67 -10 92 -15 60 -14 75 -17
143 -29 80 -15 729 -16 792 -2 59 13 91 19 205 37 103 16 109 18 138 34 12 6
61 18 108 26 47 7 91 18 97 23 7 5 29 15 50 22 22 7 51 18 65 26 15 8 37 14
48 14 12 0 27 7 34 15 7 8 20 15 29 15 9 1 48 19 86 40 39 22 80 44 93 50 13
5 49 27 80 48 50 34 110 70 177 106 12 6 42 31 68 55 25 24 57 51 69 59 51 35
299 280 347 342 14 19 47 57 73 85 26 27 48 53 48 58 0 4 20 32 45 63 25 30
45 61 45 68 0 8 7 20 16 27 9 7 29 40 45 74 16 33 39 78 52 100 65 114 96 172
102 195 4 14 18 50 32 80 69 151 79 178 88 235 4 22 15 59 26 81 10 23 23 83
30 134 6 51 17 116 25 144 9 28 19 103 25 166 13 159 13 630 1 715 -6 39 -12
111 -13 160 -1 62 -9 112 -25 160 -12 39 -23 90 -23 115 -1 25 -8 73 -17 105
-8 33 -17 68 -19 77 -2 9 -8 26 -14 37 -6 11 -11 29 -11 41 0 12 -11 46 -25
75 -13 30 -27 67 -31 82 -3 16 -12 38 -20 49 -7 12 -23 50 -34 85 -12 35 -30
75 -41 90 -10 15 -19 32 -19 38 0 14 -47 101 -65 121 -8 9 -15 21 -15 26 0 15
-37 85 -58 108 -10 12 -34 46 -52 76 -42 69 -66 101 -160 217 -6 7 -10 16 -10
21 0 20 -78 106 -159 176 -47 40 -102 88 -121 106 -19 18 -51 42 -70 55 -19
12 -41 30 -49 39 -7 9 -19 16 -27 16 -7 0 -17 6 -21 14 -10 18 -67 57 -141 97
-32 17 -75 41 -97 54 -37 22 -70 38 -102 50 -7 2 -13 8 -13 13 0 5 -18 17 -40
27 -22 10 -40 21 -40 26 0 4 -24 10 -52 14 -29 4 -71 17 -93 30 -22 13 -66 26
-100 29 -33 4 -85 18 -115 31 -85 36 -125 44 -259 50 -69 3 -154 12 -189 21
-51 13 -95 15 -230 10 -92 -4 -198 -7 -237 -7 -167 -1 -479 -48 -525 -80 -15
-10 -54 -19 -94 -23 -46 -4 -86 -14 -117 -31 -27 -14 -58 -25 -69 -25 -36 0
-147 -42 -175 -66 -16 -14 -40 -27 -54 -30 -14 -3 -37 -11 -51 -19 -14 -8 -44
-23 -68 -34 -37 -18 -198 -124 -212 -140 -3 -4 -25 -19 -50 -35 -25 -16 -65
-48 -88 -72 -34 -34 -51 -44 -77 -44 -18 0 -38 6 -44 13 -8 10 -12 411 -13
1458 l-3 1444 -650 1 c-357 0 -667 -1 -687 -3z m3232 -3512 c136 -38 187 -55
200 -66 8 -7 29 -16 45 -19 50 -12 243 -113 274 -143 15 -15 46 -37 67 -48 34
-17 129 -100 213 -186 39 -39 96 -111 112 -139 8 -14 30 -45 49 -70 20 -25 56
-85 80 -135 24 -49 51 -101 60 -115 10 -14 20 -41 23 -60 9 -59 18 -94 32
-125 7 -16 16 -59 20 -95 4 -36 16 -85 27 -110 18 -40 21 -72 26 -297 5 -251
4 -253 -22 -337 -14 -46 -26 -101 -26 -122 0 -53 -16 -107 -49 -162 -15 -26
-30 -65 -34 -86 -6 -37 -61 -154 -112 -241 -14 -22 -33 -56 -44 -76 -21 -38
-165 -196 -235 -257 -22 -21 -43 -39 -46 -42 -20 -20 -110 -90 -116 -90 -4 0
-22 -11 -39 -25 -56 -42 -187 -107 -250 -123 -33 -8 -70 -22 -83 -30 -12 -8
-63 -19 -112 -23 -65 -6 -98 -14 -117 -29 -46 -33 -132 -43 -327 -37 -103 2
-181 9 -185 15 -11 17 -99 42 -174 48 -87 7 -147 21 -147 34 0 6 -11 10 -25
10 -23 0 -80 21 -115 41 -8 5 -43 22 -77 39 -34 16 -84 46 -112 67 -27 21 -66
49 -87 63 -41 28 -201 185 -224 220 -8 13 -26 37 -40 54 -35 43 -100 141 -100
150 0 4 -9 19 -20 33 -11 14 -20 32 -20 40 0 7 -11 31 -25 53 -14 22 -25 44
-25 50 0 6 -14 41 -31 78 -16 37 -34 76 -39 87 -5 11 -11 48 -14 83 -3 35 -11
73 -18 85 -27 51 -37 146 -38 352 0 232 10 341 41 441 22 72 23 75 33 147 4
26 11 47 16 47 5 0 11 15 15 33 6 32 27 86 46 120 5 9 19 43 31 75 21 56 42
90 85 137 12 14 34 48 50 77 34 62 254 294 297 312 17 8 41 23 53 34 12 12 33
24 47 28 15 3 30 12 34 19 13 24 75 60 161 94 46 18 98 43 117 56 18 12 56 25
85 29 29 4 68 14 87 22 19 8 58 14 86 15 28 1 62 5 76 10 32 11 494 2 540 -10z" fill="#1B7D34"/>
  <path d="M8675 6714 c-56 -13 -153 -26 -220 -30 -95 -5 -131 -11 -170 -29 -49
-23 -82 -31 -160 -39 -22 -2 -56 -13 -75 -24 -19 -11 -56 -23 -82 -27 -28 -3
-60 -16 -76 -30 -16 -13 -48 -28 -71 -34 -23 -5 -50 -16 -59 -24 -9 -7 -66
-38 -127 -67 -60 -30 -121 -61 -135 -71 -14 -9 -52 -34 -85 -54 -112 -71 -134
-87 -193 -144 -32 -31 -89 -83 -127 -116 -79 -69 -124 -114 -169 -169 -17 -21
-67 -82 -111 -136 -44 -54 -93 -121 -110 -150 -16 -28 -44 -70 -61 -92 -18
-22 -38 -59 -45 -82 -7 -22 -21 -49 -31 -59 -10 -10 -18 -24 -18 -32 0 -8 -4
-15 -10 -15 -5 0 -10 -7 -10 -16 0 -9 -11 -37 -24 -63 -35 -70 -62 -131 -81
-186 -9 -27 -23 -62 -31 -77 -18 -33 -44 -130 -44 -161 0 -12 -9 -35 -20 -52
-11 -16 -20 -41 -20 -55 0 -14 -11 -70 -25 -125 -17 -68 -30 -162 -40 -295 -8
-107 -19 -222 -24 -255 -16 -97 17 -568 49 -715 11 -47 23 -126 28 -177 7 -64
15 -100 29 -120 18 -24 28 -63 39 -150 1 -13 11 -35 22 -50 11 -16 23 -48 27
-73 6 -42 42 -110 57 -110 3 0 9 -13 13 -30 4 -16 11 -32 16 -35 5 -4 9 -14 9
-23 0 -22 49 -117 89 -172 17 -24 31 -51 31 -60 0 -10 7 -23 16 -30 8 -8 21
-28 29 -46 7 -18 25 -40 40 -50 14 -9 32 -31 40 -48 8 -17 23 -43 32 -58 61
-93 290 -319 426 -421 42 -32 77 -62 77 -68 0 -5 6 -9 14 -9 8 0 24 -11 37
-25 13 -13 28 -25 32 -25 4 0 13 -5 20 -10 29 -25 89 -60 101 -60 8 0 19 -7
26 -15 17 -21 107 -70 155 -85 22 -7 45 -16 50 -20 6 -4 27 -13 48 -20 20 -6
45 -19 54 -28 24 -24 177 -82 256 -97 37 -7 76 -20 85 -29 10 -8 45 -18 77
-22 33 -3 78 -12 100 -20 22 -8 76 -16 120 -18 46 -2 108 -13 146 -25 62 -20
88 -22 365 -24 372 -2 515 4 574 27 25 10 70 20 100 22 80 6 114 13 149 30 17
8 57 18 88 21 32 3 72 13 88 23 17 10 62 28 100 41 39 12 75 25 80 29 6 4 31
13 58 20 26 7 50 17 53 21 3 5 38 25 77 44 40 20 95 49 122 65 28 17 60 35 72
40 12 5 41 23 64 40 23 16 48 30 56 30 7 0 13 5 13 10 0 6 10 14 23 19 13 5
61 40 108 78 46 37 110 88 141 112 32 24 73 61 93 82 19 21 37 39 41 39 10 0
133 136 180 200 26 36 51 67 55 70 4 3 20 23 35 45 15 22 46 68 70 102 24 34
46 74 50 88 9 36 -14 83 -50 102 -17 9 -52 33 -77 54 -26 22 -51 39 -57 39 -6
0 -34 19 -64 43 -29 23 -73 56 -97 72 -24 17 -58 40 -75 52 -17 12 -37 22 -44
22 -8 1 -37 20 -65 44 -119 98 -228 164 -285 173 -23 3 -52 14 -65 24 -58 45
-78 35 -147 -71 -19 -29 -73 -91 -120 -136 -153 -149 -181 -178 -191 -195 -5
-10 -24 -25 -41 -34 -17 -9 -36 -20 -42 -25 -44 -36 -90 -69 -98 -69 -5 0 -26
-13 -46 -29 -20 -17 -50 -33 -67 -37 -16 -4 -45 -18 -63 -31 -18 -13 -54 -28
-81 -32 -27 -4 -66 -17 -87 -28 -42 -22 -116 -40 -198 -49 -27 -3 -60 -13 -73
-21 -36 -24 -419 -25 -488 -1 -27 10 -93 26 -145 37 -98 19 -156 39 -275 97
-38 19 -76 34 -84 34 -8 0 -32 15 -55 34 -23 18 -50 36 -61 40 -11 3 -40 24
-65 46 -25 23 -56 48 -70 57 -14 8 -43 38 -65 64 -22 27 -46 55 -53 61 -43 40
-72 74 -72 85 0 6 -6 16 -14 20 -18 11 -61 82 -69 113 -3 14 -24 43 -46 65
-25 25 -43 53 -47 75 -3 19 -17 55 -30 79 -14 25 -34 85 -45 135 -11 50 -24
107 -29 126 -21 80 -22 111 -5 130 16 18 86 19 1983 19 1702 1 1969 3 1988 16
34 22 42 110 46 557 3 281 2 287 -19 316 -18 24 -24 54 -34 158 -6 71 -17 144
-25 162 -7 17 -16 60 -20 95 -3 34 -15 81 -25 104 -11 23 -19 46 -19 52 0 5
-5 11 -11 13 -6 2 -13 25 -16 52 -3 27 -16 68 -29 93 -13 24 -24 53 -24 64 0
11 -16 50 -35 86 -19 36 -35 72 -35 80 0 7 -4 13 -9 13 -5 0 -13 10 -16 23 -8
26 -94 170 -106 177 -4 3 -14 19 -21 36 -18 40 -44 77 -100 139 -27 28 -48 61
-48 72 0 20 -101 129 -267 284 -86 82 -166 144 -233 180 -16 9 -44 30 -64 46
-19 17 -50 36 -70 43 -20 6 -36 15 -36 19 0 5 -28 21 -62 36 -35 15 -72 35
-83 45 -11 10 -33 21 -50 24 -16 4 -60 21 -97 37 -36 16 -77 29 -90 29 -13 0
-50 13 -83 28 -35 17 -87 31 -123 35 -34 4 -83 16 -108 28 -36 16 -80 22 -203
30 -98 6 -183 17 -229 29 -62 17 -101 20 -270 19 -169 -1 -211 -5 -297 -25z
m474 -1124 c40 -5 87 -16 103 -25 17 -8 60 -17 97 -21 70 -6 121 -21 121 -35
0 -5 24 -16 54 -24 30 -9 60 -22 66 -30 7 -8 35 -26 63 -40 29 -14 68 -34 88
-45 55 -29 254 -234 280 -288 22 -46 77 -124 91 -130 4 -2 10 -20 14 -40 3
-20 12 -46 19 -58 8 -12 17 -39 20 -60 4 -21 15 -50 25 -64 9 -14 20 -44 23
-65 3 -22 11 -59 18 -83 10 -31 10 -48 3 -60 -10 -16 -97 -17 -1295 -20 -727
-1 -1287 2 -1292 7 -17 17 -14 67 8 116 12 27 33 82 45 120 27 81 125 289 149
315 36 39 117 135 137 164 23 33 76 76 94 76 5 0 15 9 22 20 7 11 16 20 21 20
4 0 24 11 45 24 20 12 40 23 44 22 3 -1 17 9 30 21 13 12 37 25 53 29 17 3 38
14 48 22 20 17 83 42 108 42 9 0 27 9 41 19 15 12 54 24 103 30 43 6 84 16 90
21 25 21 350 35 464 20z" fill="#1B7D34"/>
  <path d="M14153 6725 c-18 -8 -33 -12 -33 -10 0 2 -15 -1 -32 -6 -18 -5 -107
-14 -197 -19 -140 -9 -173 -14 -217 -34 -30 -14 -82 -27 -119 -30 -38 -4 -78
-14 -97 -26 -18 -11 -42 -20 -54 -20 -11 0 -38 -9 -60 -19 -22 -11 -56 -22
-77 -26 -20 -4 -48 -16 -61 -26 -13 -11 -30 -19 -38 -19 -7 0 -29 -10 -48 -22
-83 -52 -143 -88 -147 -88 -6 0 -117 -83 -128 -96 -5 -6 -15 -13 -22 -15 -36
-12 -253 -225 -278 -274 -11 -22 -30 -51 -43 -65 -13 -14 -36 -52 -53 -85 -16
-33 -41 -79 -54 -103 -13 -24 -27 -53 -31 -65 -3 -12 -12 -29 -19 -37 -6 -8
-20 -44 -29 -80 -10 -36 -25 -85 -33 -110 -44 -128 -57 -570 -21 -720 31 -134
51 -204 60 -214 4 -6 8 -18 8 -27 0 -21 46 -125 59 -133 5 -4 12 -20 16 -36 4
-17 10 -30 15 -30 5 0 12 -10 16 -22 5 -18 76 -111 104 -138 3 -3 21 -26 40
-52 19 -26 43 -50 52 -53 10 -4 41 -31 70 -61 29 -30 62 -60 74 -67 13 -7 57
-30 99 -51 42 -22 81 -46 87 -53 6 -7 15 -13 20 -13 15 0 96 -39 103 -50 3 -5
14 -10 23 -10 9 0 44 -14 77 -30 33 -16 65 -30 71 -30 6 0 17 -7 24 -15 7 -8
23 -15 36 -15 24 0 75 -19 84 -32 3 -3 41 -16 85 -28 44 -12 98 -29 120 -39
22 -11 65 -21 96 -24 31 -3 71 -13 89 -22 18 -9 58 -19 89 -22 31 -2 72 -11
91 -18 19 -8 53 -16 75 -18 22 -2 58 -12 80 -21 22 -10 74 -21 116 -25 41 -5
86 -15 100 -23 13 -9 51 -19 84 -23 33 -4 78 -15 101 -26 23 -10 71 -21 108
-25 49 -5 76 -13 95 -30 15 -12 45 -26 66 -29 84 -16 302 -137 341 -191 11
-14 29 -37 42 -50 29 -33 48 -71 56 -114 4 -19 14 -65 23 -101 16 -61 15 -69
0 -102 -9 -19 -17 -48 -17 -64 0 -16 -13 -56 -29 -89 -41 -83 -154 -213 -187
-214 -6 0 -19 -9 -29 -20 -10 -11 -28 -20 -40 -20 -11 0 -35 -10 -52 -23 -17
-13 -54 -29 -82 -37 -28 -7 -51 -17 -51 -21 0 -8 -35 -15 -144 -29 -43 -5 -85
-15 -93 -22 -24 -19 -302 -24 -360 -5 -26 8 -77 18 -113 22 -36 4 -85 16 -109
26 -24 11 -46 17 -49 14 -3 -3 -10 -1 -16 4 -6 5 -28 14 -48 20 -20 7 -42 19
-48 27 -7 7 -22 14 -33 14 -11 0 -35 11 -53 25 -18 14 -36 25 -40 25 -3 0 -23
15 -44 33 -20 17 -50 41 -66 52 -39 26 -124 111 -124 124 0 5 -11 22 -24 38
-32 38 -76 118 -77 140 0 10 -9 32 -20 48 -25 40 -37 65 -43 95 -3 14 -19 40
-36 58 -28 31 -34 34 -78 29 -42 -4 -110 -19 -227 -48 -22 -6 -60 -15 -85 -20
-25 -6 -79 -19 -120 -29 -41 -11 -102 -22 -135 -25 -32 -4 -74 -13 -93 -21
-19 -8 -46 -14 -61 -14 -14 0 -51 -7 -81 -16 -30 -8 -93 -21 -140 -29 -269
-44 -267 -43 -235 -135 8 -23 15 -54 15 -69 0 -15 9 -44 20 -66 11 -22 20 -44
20 -50 0 -5 16 -51 36 -100 20 -50 40 -106 46 -125 9 -32 42 -87 59 -100 3 -3
10 -16 14 -30 8 -28 62 -117 74 -122 4 -2 18 -19 32 -39 41 -62 209 -242 319
-343 14 -12 36 -28 50 -34 14 -7 53 -31 86 -55 88 -60 150 -98 213 -130 31
-16 63 -34 71 -41 8 -7 65 -27 125 -46 61 -18 112 -37 116 -42 3 -4 29 -12 59
-18 29 -5 58 -14 64 -19 7 -6 43 -15 81 -21 38 -6 74 -15 80 -20 6 -5 38 -12
71 -15 32 -4 104 -15 159 -26 127 -25 293 -34 565 -33 240 1 349 9 430 30 30
8 105 19 165 23 63 6 135 18 168 30 31 11 57 18 57 16 0 -3 24 4 53 14 28 11
66 22 82 25 17 4 39 8 50 10 22 4 138 51 170 69 11 6 72 37 135 70 154 80 212
112 230 130 8 8 25 18 38 21 12 4 22 11 22 15 0 5 24 26 53 48 28 22 65 51 80
64 41 35 223 243 256 292 9 13 29 44 46 68 16 24 39 62 51 84 11 22 35 67 53
100 19 33 36 74 38 90 3 17 11 41 19 55 24 44 67 295 78 456 11 147 -29 435
-79 579 -36 105 -101 239 -145 300 -16 22 -37 56 -47 75 -39 78 -392 390 -440
390 -8 0 -27 8 -41 18 -33 23 -215 112 -229 112 -5 0 -20 9 -33 20 -13 11 -32
20 -44 20 -12 0 -30 7 -40 15 -11 8 -32 15 -47 15 -15 0 -34 6 -41 13 -19 18
-66 35 -121 43 -26 3 -64 15 -84 25 -21 11 -53 19 -73 19 -19 1 -53 8 -75 17
-22 8 -84 21 -138 29 -53 7 -110 20 -126 28 -16 9 -57 18 -92 21 -35 4 -84 12
-109 20 -25 7 -65 16 -89 19 -24 4 -62 15 -85 25 -22 10 -67 22 -99 26 -32 3
-70 13 -84 20 -15 8 -51 17 -81 21 -29 3 -73 17 -97 30 -24 12 -61 26 -82 30
-21 4 -54 15 -73 25 -41 21 -106 49 -113 49 -12 0 -133 84 -150 104 -10 11
-36 59 -58 105 -40 82 -41 85 -41 195 -1 109 0 112 35 176 43 79 191 228 234
236 15 3 35 11 43 19 8 7 62 31 120 51 l105 38 260 1 260 0 70 -28 c157 -63
229 -105 330 -193 80 -69 124 -127 157 -207 16 -39 35 -78 42 -87 8 -8 17 -29
21 -47 8 -38 20 -49 82 -73 36 -13 53 -15 70 -7 13 6 23 14 23 18 0 4 26 10
58 14 31 3 73 12 92 20 19 8 62 17 95 20 33 4 65 11 70 15 6 4 43 13 83 19 41
6 87 18 104 27 16 8 62 19 101 24 40 5 94 16 121 24 27 9 66 16 88 16 21 0 64
9 95 19 32 11 78 23 102 26 74 12 109 70 77 129 -9 17 -19 47 -22 66 -6 30
-19 63 -65 165 -5 11 -24 47 -44 80 -19 33 -50 89 -70 125 -19 36 -48 79 -63
95 -15 17 -42 50 -59 75 -42 62 -260 278 -303 301 -43 24 -68 39 -99 62 -13 9
-32 17 -41 17 -10 0 -25 11 -34 25 -9 14 -43 37 -76 52 -33 14 -60 30 -60 35
0 4 -5 8 -12 8 -6 0 -30 9 -52 19 -45 21 -131 51 -147 51 -6 0 -23 8 -37 19
-16 10 -54 21 -91 25 -35 3 -78 14 -95 25 -37 22 -71 29 -196 36 -94 6 -242
29 -262 41 -5 3 -118 8 -251 10 -196 3 -248 1 -274 -11z" fill="#1B7D34"/>
  <path d="M20135 6730 c-38 -4 -77 -9 -85 -13 -19 -8 -91 -15 -257 -27 -143
-10 -208 -23 -235 -47 -10 -9 -46 -19 -86 -22 -52 -5 -75 -13 -103 -34 -22
-16 -55 -30 -84 -34 -26 -3 -56 -14 -65 -23 -10 -10 -33 -20 -53 -24 -19 -4
-41 -13 -47 -21 -7 -9 -34 -26 -60 -39 -27 -13 -92 -50 -145 -83 -53 -32 -108
-64 -121 -71 -13 -7 -65 -54 -115 -104 -73 -72 -97 -91 -122 -92 -42 -1 -53
25 -61 149 -15 227 -32 361 -48 371 -5 3 -288 6 -629 6 -699 0 -651 6 -643
-77 2 -22 7 -110 11 -195 5 -91 13 -164 20 -177 10 -17 13 -651 13 -3030 0
-2601 -2 -3016 -15 -3068 -8 -33 -14 -63 -15 -67 0 -5 306 -8 680 -8 l680 0 1
778 c0 427 3 795 7 817 6 31 12 41 30 43 24 4 46 -11 144 -96 57 -49 143 -112
153 -112 3 0 31 -19 62 -43 32 -24 121 -74 198 -111 77 -37 151 -73 165 -81
14 -7 43 -16 65 -21 22 -4 56 -15 75 -25 19 -11 47 -19 61 -19 15 0 56 -9 91
-20 34 -11 101 -23 148 -27 47 -3 90 -9 95 -13 30 -24 156 -33 450 -33 299 0
312 1 345 22 19 11 49 21 65 21 47 0 188 28 231 44 22 9 77 24 122 35 46 11
95 27 108 35 13 9 30 16 38 16 16 0 177 80 202 100 7 7 14 9 14 4 0 -5 4 -4 8
2 4 6 28 21 54 33 26 11 49 25 53 31 3 5 27 19 53 30 25 11 53 27 62 35 8 7
29 21 45 29 32 17 172 137 291 250 40 38 80 73 88 78 22 12 156 156 156 167 0
3 11 19 25 35 14 16 25 33 25 38 0 4 16 25 36 45 42 44 104 133 104 149 0 6
17 34 38 62 46 64 92 137 92 147 0 14 45 105 52 105 3 0 14 23 24 52 9 28 25
65 35 82 9 17 21 49 24 71 4 22 15 52 25 66 10 14 26 66 35 115 9 51 25 101
36 117 15 20 23 55 30 125 5 53 18 124 28 157 25 80 37 292 33 612 -2 185 -7
265 -17 300 -8 26 -15 80 -15 118 -1 102 -16 204 -38 250 -11 22 -22 69 -25
105 -2 36 -14 92 -26 125 -11 32 -21 72 -21 87 0 16 -12 52 -27 81 -30 58 -30
58 -32 90 0 13 -9 34 -20 46 -10 12 -24 42 -30 67 -7 26 -23 63 -36 83 -14 19
-25 45 -25 57 0 12 -11 33 -25 48 -14 15 -25 36 -25 46 0 11 -13 34 -28 52
-16 18 -46 60 -67 93 -21 33 -54 80 -75 105 -20 25 -46 60 -56 78 -10 17 -22
32 -26 32 -4 0 -8 6 -8 14 0 7 -34 51 -75 97 -84 95 -77 87 -130 135 -22 20
-67 60 -100 89 -67 61 -91 78 -220 164 -49 33 -95 64 -100 69 -6 5 -26 14 -45
21 -19 6 -52 23 -72 36 -21 14 -55 36 -76 50 -21 14 -45 25 -54 25 -8 0 -30
10 -49 23 -19 13 -56 29 -82 36 -26 8 -59 22 -72 33 -14 11 -48 21 -82 24 -32
3 -69 12 -83 19 -54 29 -69 33 -195 44 -71 6 -166 20 -210 31 -66 17 -109 20
-240 18 -88 -1 -191 -5 -230 -8z m10 -1185 c66 -4 143 -13 170 -20 28 -8 75
-17 105 -21 30 -3 74 -15 97 -25 23 -11 47 -19 52 -19 18 0 144 -69 175 -96
17 -14 48 -35 70 -47 91 -49 184 -116 214 -155 18 -22 41 -44 50 -47 9 -3 28
-22 42 -42 14 -20 38 -49 55 -65 29 -30 45 -54 64 -96 6 -12 20 -33 32 -45 12
-12 30 -41 41 -64 10 -24 23 -43 28 -43 6 0 10 -9 10 -19 0 -11 7 -26 15 -35
8 -8 15 -21 15 -29 0 -8 18 -50 40 -93 22 -43 40 -92 40 -109 0 -16 7 -42 15
-58 8 -15 18 -59 24 -98 5 -38 15 -76 21 -84 6 -7 14 -55 19 -107 4 -52 11
-100 15 -107 4 -6 7 -70 7 -141 -1 -106 -5 -137 -20 -168 -14 -27 -20 -68 -24
-148 -4 -82 -11 -123 -26 -155 -11 -24 -25 -71 -30 -104 -6 -32 -22 -81 -36
-107 -14 -26 -25 -53 -25 -60 0 -6 -6 -19 -14 -27 -8 -9 -40 -63 -71 -121 -32
-58 -73 -124 -91 -147 -19 -23 -34 -45 -34 -50 0 -14 -267 -262 -282 -263 -4
0 -26 -18 -50 -40 -24 -22 -48 -40 -54 -40 -5 0 -40 -18 -77 -40 -36 -22 -74
-40 -84 -40 -26 0 -92 -25 -148 -54 -37 -20 -62 -26 -112 -26 -48 0 -78 -6
-117 -25 -66 -31 -95 -35 -290 -36 -153 -1 -160 0 -210 26 -38 20 -73 29 -136
34 -47 4 -99 15 -117 24 -18 10 -39 17 -48 17 -20 0 -83 28 -105 46 -8 7 -55
33 -105 59 -49 26 -104 60 -120 76 -17 16 -34 29 -37 29 -13 0 -93 59 -126 92
-18 18 -57 65 -88 103 -31 39 -61 75 -67 80 -27 23 -97 123 -97 138 0 10 -16
39 -35 66 -19 26 -35 55 -35 63 0 18 -28 75 -40 83 -5 3 -12 20 -16 37 -3 18
-13 42 -20 54 -8 11 -17 41 -20 65 -4 24 -13 56 -20 71 -8 15 -14 47 -14 71 0
25 -9 75 -21 112 -19 62 -20 87 -17 334 3 252 4 269 26 313 14 30 22 66 22
100 0 33 9 75 25 113 13 33 25 72 25 86 0 15 9 38 20 52 11 14 20 31 20 37 0
7 6 26 14 43 8 18 25 56 38 85 12 28 26 52 30 52 5 0 18 21 30 47 12 27 44 76
70 111 27 35 48 66 48 68 0 13 271 264 285 264 12 0 109 66 124 84 7 8 27 18
44 22 18 3 43 12 57 19 45 24 134 62 175 75 22 7 58 20 80 30 22 10 81 20 130
24 50 4 106 11 125 16 19 5 62 7 95 5 33 -2 114 -7 180 -10z" fill="#1B7D34"/>
  <path d="M25579 6736 c-2 -2 -31 -6 -64 -9 -63 -6 -110 -14 -135 -23 -8 -3
-69 -9 -135 -14 -91 -6 -130 -13 -157 -28 -19 -11 -62 -23 -94 -27 -34 -4 -68
-15 -79 -25 -11 -10 -36 -21 -55 -25 -19 -4 -59 -21 -89 -36 -30 -16 -62 -29
-72 -29 -10 0 -33 -10 -52 -22 -49 -33 -126 -81 -156 -98 -14 -8 -44 -26 -66
-39 -22 -13 -60 -35 -85 -49 -75 -41 -145 -104 -340 -310 -74 -79 -149 -166
-167 -195 -18 -29 -45 -72 -60 -97 -15 -25 -31 -48 -37 -52 -10 -7 -32 -45
-61 -107 -9 -19 -32 -55 -51 -79 -19 -25 -34 -55 -34 -67 0 -12 -7 -28 -15
-35 -8 -7 -15 -17 -15 -22 0 -6 -8 -22 -19 -36 -10 -15 -21 -42 -24 -60 -4
-19 -16 -47 -27 -62 -11 -16 -25 -54 -31 -85 -6 -31 -18 -71 -28 -88 -10 -18
-21 -53 -24 -79 -4 -26 -16 -62 -27 -80 -11 -18 -20 -50 -20 -72 0 -22 -11
-76 -24 -120 -13 -45 -26 -115 -30 -157 -3 -42 -12 -109 -20 -150 -8 -41 -17
-92 -21 -113 -4 -22 -6 -231 -6 -465 1 -344 4 -429 15 -446 17 -26 36 -144 36
-225 0 -37 7 -80 19 -108 11 -26 22 -69 25 -97 4 -27 15 -67 27 -89 11 -21 23
-62 26 -90 3 -28 12 -60 19 -71 7 -11 16 -40 20 -65 4 -25 10 -49 14 -55 11
-13 50 -114 56 -142 2 -13 18 -45 34 -73 17 -28 30 -55 30 -61 0 -14 78 -151
100 -174 10 -11 33 -47 50 -80 17 -33 47 -76 66 -95 19 -20 34 -39 34 -43 0
-15 84 -121 119 -151 20 -16 59 -53 86 -82 74 -76 254 -225 291 -240 18 -8 37
-20 41 -28 4 -7 37 -28 73 -45 36 -18 92 -47 125 -64 66 -36 143 -67 164 -67
7 0 19 -7 27 -15 9 -8 27 -17 42 -20 15 -3 50 -15 77 -27 28 -11 85 -25 128
-30 43 -5 90 -14 105 -20 15 -6 38 -13 51 -14 14 -2 37 -8 52 -14 33 -14 521
-20 599 -7 60 10 85 15 85 17 0 5 51 12 139 21 55 5 104 13 111 19 6 5 51 19
100 30 49 11 94 25 99 29 6 5 38 17 71 26 51 15 131 52 275 125 16 8 38 25 50
38 11 12 27 22 34 22 7 0 25 11 40 25 15 14 32 25 38 25 31 0 212 167 295 272
87 109 110 93 116 -82 4 -117 10 -174 23 -210 7 -19 10 -39 19 -113 6 -50 10
-59 32 -68 16 -6 255 -8 618 -7 567 3 594 4 614 22 12 11 21 25 21 33 0 8 7
27 15 43 14 27 14 34 -1 67 -14 35 -16 249 -17 2351 -2 1757 1 2349 10 2465 7
84 17 208 23 277 10 122 10 125 -11 143 -20 16 -61 17 -631 15 -706 -3 -638 9
-639 -117 0 -42 -5 -98 -10 -126 -5 -27 -14 -95 -19 -150 -8 -90 -12 -102 -36
-123 -20 -17 -34 -22 -53 -17 -14 4 -28 11 -30 17 -5 16 -121 148 -129 148 -4
0 -15 13 -25 29 -9 16 -38 43 -65 60 -26 17 -67 45 -92 62 -122 84 -222 138
-282 153 -15 3 -33 12 -40 20 -26 25 -77 46 -115 46 -21 0 -54 8 -73 19 -20
10 -69 22 -110 26 -41 4 -92 14 -113 21 -47 17 -554 53 -568 40z m540 -1167
c24 -5 62 -18 85 -28 22 -10 64 -22 91 -26 28 -4 61 -13 75 -20 14 -8 37 -16
51 -19 14 -3 43 -17 63 -31 21 -14 52 -29 69 -32 16 -3 38 -13 47 -22 25 -24
59 -51 125 -100 64 -48 78 -61 140 -135 22 -27 54 -65 71 -85 17 -20 43 -58
58 -86 15 -27 41 -67 57 -87 16 -20 29 -43 29 -51 0 -15 21 -63 45 -107 8 -14
15 -35 15 -47 0 -12 4 -24 9 -28 5 -3 15 -22 21 -43 7 -20 18 -50 25 -67 7
-16 18 -64 24 -106 6 -42 15 -88 21 -104 6 -15 13 -80 16 -146 3 -65 11 -142
19 -171 16 -62 19 -306 4 -345 -5 -14 -14 -85 -20 -157 -7 -86 -17 -145 -29
-171 -10 -22 -23 -65 -29 -95 -12 -54 -21 -80 -75 -206 -14 -34 -26 -68 -26
-77 0 -8 -6 -20 -14 -26 -8 -6 -20 -26 -27 -44 -7 -18 -21 -41 -31 -51 -10
-11 -18 -26 -18 -33 0 -7 -9 -17 -20 -23 -11 -6 -20 -17 -20 -24 0 -28 -179
-224 -265 -292 -67 -52 -142 -102 -177 -119 -18 -8 -46 -24 -63 -34 -16 -11
-39 -20 -50 -20 -11 -1 -36 -9 -55 -20 -19 -10 -51 -22 -70 -25 -19 -4 -49
-14 -66 -21 -42 -20 -82 -24 -274 -32 -136 -5 -175 -3 -215 10 -28 8 -80 18
-116 22 -36 3 -78 13 -93 20 -15 8 -45 19 -65 25 -21 5 -54 21 -73 33 -19 13
-47 27 -61 31 -15 3 -35 14 -45 24 -10 9 -43 34 -74 54 -101 66 -348 337 -348
381 0 9 -5 19 -10 22 -6 4 -22 30 -36 58 -15 29 -34 61 -44 72 -10 11 -20 36
-24 57 -4 20 -18 57 -31 83 -14 25 -25 60 -25 77 0 17 -9 47 -20 67 -10 20
-24 65 -30 101 -5 36 -17 97 -26 135 -36 155 -43 589 -11 690 8 28 17 87 20
132 3 45 12 96 20 112 8 17 18 50 22 73 3 24 12 59 19 78 8 19 20 55 27 80 7
25 21 61 30 80 10 19 39 78 64 130 59 122 75 151 103 180 12 13 22 27 22 32 0
20 237 268 256 268 7 0 25 11 41 23 46 39 202 114 282 136 40 11 83 27 96 35
12 8 55 19 95 25 39 5 75 12 78 16 10 9 292 5 341 -6z" fill="#1B7D34"/>
  <path d="M31829 6736 c-2 -2 -22 -6 -44 -10 -22 -3 -65 -10 -95 -16 -30 -5
-108 -15 -174 -20 -73 -6 -148 -19 -195 -34 -42 -14 -103 -30 -136 -36 -33 -7
-80 -21 -104 -32 -24 -12 -58 -24 -75 -28 -29 -7 -134 -49 -232 -91 -22 -9
-46 -24 -53 -33 -8 -9 -23 -16 -34 -16 -11 0 -28 -6 -36 -13 -9 -8 -32 -20
-51 -27 -19 -8 -46 -22 -59 -32 -13 -10 -29 -18 -36 -18 -7 0 -30 -16 -51 -35
-22 -19 -43 -35 -47 -35 -12 0 -100 -63 -110 -77 -4 -7 -12 -13 -17 -13 -5 0
-34 -24 -65 -52 -30 -29 -68 -63 -83 -76 -46 -39 -222 -215 -222 -221 0 -4
-12 -20 -27 -37 -16 -17 -35 -42 -43 -55 -8 -13 -27 -35 -42 -50 -16 -15 -28
-31 -28 -36 0 -5 -8 -16 -17 -24 -43 -39 -68 -78 -127 -195 -20 -39 -44 -79
-55 -88 -10 -10 -22 -32 -25 -51 -4 -18 -13 -38 -21 -45 -8 -7 -15 -18 -15
-24 0 -7 -9 -29 -20 -51 -11 -22 -20 -47 -20 -56 0 -10 -4 -19 -9 -21 -8 -3
-35 -67 -79 -193 -6 -16 -18 -57 -28 -90 -9 -33 -25 -78 -35 -101 -11 -23 -19
-61 -19 -85 -1 -24 -9 -62 -19 -83 -11 -22 -17 -45 -14 -52 3 -7 0 -28 -6 -46
-6 -18 -13 -60 -15 -93 -7 -82 -18 -222 -21 -270 -2 -22 -8 -69 -15 -104 -12
-66 -10 -122 15 -381 8 -80 17 -181 21 -225 3 -44 10 -84 15 -90 5 -5 9 -28 9
-51 0 -23 7 -58 15 -78 8 -20 19 -62 25 -94 14 -91 20 -115 40 -157 10 -22 24
-64 30 -93 7 -28 16 -54 20 -57 5 -3 18 -36 30 -73 13 -37 31 -76 41 -88 11
-11 19 -28 19 -36 0 -9 6 -23 14 -30 7 -8 17 -25 21 -38 4 -14 14 -36 23 -50
18 -27 44 -75 72 -130 39 -75 150 -237 199 -290 28 -30 59 -67 69 -81 19 -30
182 -191 232 -229 18 -14 38 -31 45 -37 8 -7 18 -13 23 -13 5 0 22 -12 38 -27
33 -32 66 -57 144 -110 30 -21 60 -43 65 -49 6 -6 37 -26 70 -45 33 -19 69
-40 80 -46 11 -7 34 -19 51 -27 17 -8 36 -22 43 -30 7 -9 29 -18 50 -22 20 -4
70 -22 113 -40 42 -19 83 -34 92 -34 9 0 26 -5 39 -12 48 -24 57 -28 76 -28
10 0 38 -9 62 -20 24 -11 56 -20 71 -20 15 0 50 -9 78 -20 27 -11 76 -22 108
-25 144 -13 170 -17 212 -31 73 -25 168 -31 475 -29 276 1 295 3 395 28 58 14
132 29 165 33 33 3 71 12 85 19 14 7 54 20 90 30 36 9 76 23 90 30 14 7 52 18
85 25 33 7 103 32 155 55 52 23 106 47 120 54 14 6 43 22 65 36 22 14 48 28
58 31 9 4 17 10 17 14 0 5 12 13 28 19 55 23 212 126 269 178 79 72 156 138
167 142 31 12 300 307 319 351 6 14 31 50 54 80 76 99 80 105 88 130 8 28 43
88 62 108 7 7 15 29 19 50 3 20 17 51 30 68 23 31 44 80 66 154 5 19 16 42 24
51 8 8 14 22 14 30 0 8 4 19 9 24 5 6 12 26 16 46 6 31 3 39 -19 57 -15 11
-46 23 -69 27 -42 6 -113 26 -177 51 -19 7 -49 16 -67 19 -18 4 -49 15 -70 25
-21 10 -58 21 -83 25 -25 4 -64 16 -88 26 -23 11 -65 24 -92 29 -27 5 -60 16
-72 24 -21 13 -94 31 -110 28 -4 -1 -26 7 -50 18 -24 11 -54 20 -68 20 -27 0
-81 18 -118 38 -12 7 -26 10 -31 7 -5 -3 -11 0 -13 6 -2 6 -25 13 -51 16 -40
5 -52 2 -82 -21 -29 -22 -35 -34 -35 -64 0 -20 -11 -55 -24 -78 -13 -22 -26
-53 -30 -67 -3 -15 -17 -43 -31 -63 -14 -20 -25 -41 -25 -45 0 -21 -126 -183
-202 -260 -93 -95 -257 -222 -291 -227 -43 -6 -92 -25 -113 -43 -11 -11 -60
-27 -112 -39 -51 -11 -107 -26 -125 -34 -82 -39 -295 -57 -424 -37 -43 7 -107
17 -142 22 -35 6 -73 16 -85 24 -11 7 -39 17 -61 21 -22 4 -56 17 -75 29 -19
12 -46 25 -60 30 -14 4 -52 20 -84 36 -33 16 -65 29 -71 29 -7 0 -32 17 -56
38 -24 20 -63 50 -85 65 -42 28 -139 122 -171 166 -10 13 -30 37 -45 54 -16
16 -28 35 -28 42 0 6 -11 21 -25 33 -14 12 -25 29 -25 38 0 10 -16 32 -35 51
-19 19 -35 40 -35 47 0 20 -56 131 -74 145 -9 7 -18 29 -22 50 -6 35 -25 87
-45 124 -6 10 -13 42 -16 70 -3 29 -15 72 -26 97 -53 119 -61 659 -12 758 9
17 19 69 22 116 3 47 9 86 14 86 9 0 49 103 49 127 0 21 56 139 70 148 5 3 10
14 10 24 0 10 7 24 15 31 8 7 15 21 15 32 0 10 15 39 33 63 17 24 47 68 65 98
32 53 190 220 254 268 17 13 52 41 77 62 25 20 49 37 53 37 5 0 27 14 50 30
22 17 46 30 53 30 6 0 27 11 45 25 19 14 51 28 72 31 20 4 45 15 54 25 9 11
25 19 36 19 10 0 67 12 126 26 94 22 128 25 282 25 96 0 184 -2 195 -5 11 -2
49 -11 85 -19 36 -8 88 -18 115 -22 28 -3 65 -15 83 -26 18 -10 42 -19 52 -19
11 0 44 -16 74 -34 29 -19 65 -38 80 -42 14 -3 40 -19 57 -35 17 -16 36 -29
43 -29 25 0 271 -239 282 -274 3 -11 19 -35 35 -51 33 -35 122 -210 139 -275
13 -48 27 -65 77 -95 32 -19 33 -19 70 2 21 11 61 24 88 28 28 3 64 15 81 24
17 10 53 21 80 25 27 4 82 18 123 32 40 13 84 24 98 24 13 0 45 9 71 20 26 10
70 24 97 29 97 19 183 40 221 55 42 15 150 40 223 52 82 12 108 72 67 152 -9
17 -16 44 -16 60 0 16 -9 41 -21 55 -11 15 -23 44 -26 64 -3 21 -16 52 -29 70
-13 17 -24 36 -24 40 0 5 -24 47 -54 94 -29 46 -57 95 -61 108 -10 34 -142
228 -159 234 -7 3 -23 26 -35 51 -24 49 -375 400 -428 426 -15 8 -43 27 -61
42 -18 16 -41 28 -51 28 -10 0 -26 9 -36 20 -10 11 -22 20 -28 20 -11 0 -80
31 -87 40 -3 3 -50 27 -105 54 -55 26 -122 58 -150 72 -27 13 -70 29 -95 35
-25 6 -55 17 -67 25 -13 8 -60 21 -105 30 -45 9 -115 26 -154 40 -42 14 -96
24 -128 24 -70 0 -177 15 -282 41 -67 16 -119 19 -286 19 -113 0 -207 -2 -209
-4z" fill="#1B7D34"/>
  <path d="M37250 6721 c-47 -11 -128 -22 -180 -26 -96 -7 -216 -30 -235 -44 -5
-5 -32 -11 -60 -14 -110 -14 -128 -18 -165 -37 -22 -11 -50 -20 -63 -20 -13 0
-41 -11 -61 -25 -20 -14 -43 -25 -50 -25 -7 0 -39 -13 -71 -30 -32 -16 -63
-30 -69 -30 -6 0 -21 -11 -33 -24 -13 -13 -36 -26 -53 -30 -34 -6 -220 -140
-221 -159 0 -7 -22 -29 -50 -50 -51 -39 -108 -118 -109 -151 0 -11 -55 -73
-129 -145 -70 -69 -135 -139 -144 -156 -8 -16 -28 -43 -44 -60 -32 -33 -93
-126 -93 -142 0 -5 -9 -18 -20 -28 -11 -10 -20 -22 -20 -27 0 -6 -15 -27 -32
-48 -34 -39 -90 -137 -103 -180 -4 -14 -18 -38 -31 -53 -13 -15 -26 -44 -30
-65 -3 -20 -23 -73 -44 -117 -21 -44 -41 -98 -45 -120 -3 -22 -15 -69 -26
-105 -35 -119 -50 -184 -59 -255 -9 -70 -11 -80 -29 -165 -27 -120 -43 -410
-37 -629 4 -106 9 -197 12 -202 3 -5 7 -49 9 -98 2 -49 11 -113 19 -142 13
-47 22 -110 42 -286 3 -24 9 -43 13 -43 8 0 24 -51 37 -118 3 -18 16 -44 29
-58 14 -15 25 -43 29 -76 4 -28 15 -63 25 -77 18 -25 32 -60 37 -90 4 -23 48
-111 56 -111 3 0 12 -17 19 -37 6 -21 27 -57 45 -80 19 -23 34 -46 34 -51 0
-5 16 -33 35 -61 19 -28 35 -56 35 -62 0 -7 26 -41 58 -76 31 -36 64 -75 72
-87 42 -64 139 -186 179 -227 25 -25 76 -77 113 -115 65 -68 126 -124 135
-124 2 0 36 -24 76 -53 125 -93 172 -124 198 -132 13 -4 31 -13 39 -20 17 -14
95 -55 155 -80 22 -9 48 -21 58 -26 31 -17 273 -99 291 -99 9 0 29 -6 44 -14
15 -7 52 -16 82 -20 61 -7 127 -15 178 -22 19 -2 41 -8 50 -13 33 -17 136 -22
424 -22 272 0 416 9 443 30 9 7 70 19 195 37 25 3 63 14 85 24 22 10 76 27
120 40 44 12 94 28 110 35 17 8 44 16 60 18 17 1 44 10 60 19 17 8 41 19 55
23 14 4 39 13 55 20 17 7 53 22 81 33 28 11 84 42 123 68 40 27 98 63 129 79
31 17 77 44 101 60 24 17 51 35 60 40 9 6 18 13 21 16 3 3 20 14 37 23 18 9
46 29 62 44 64 59 77 69 97 76 11 3 27 18 34 31 7 14 17 25 21 25 4 0 38 37
76 83 84 102 119 141 159 181 18 17 48 58 67 91 19 33 49 77 66 99 17 21 31
43 31 48 0 6 10 18 21 27 16 12 23 32 26 68 4 50 3 52 -48 102 -28 28 -56 51
-61 51 -6 0 -31 17 -57 38 -45 37 -134 99 -195 135 -16 11 -35 24 -41 31 -9
11 -41 35 -84 61 -9 6 -61 40 -117 77 -68 46 -117 71 -152 79 -29 6 -54 15
-58 20 -3 5 -22 9 -42 9 -33 0 -43 -7 -89 -61 -29 -33 -53 -67 -53 -74 0 -7
-51 -66 -112 -130 -62 -64 -116 -123 -120 -130 -8 -14 -104 -85 -114 -85 -4 0
-21 -13 -40 -29 -38 -34 -142 -93 -196 -112 -21 -7 -38 -17 -38 -21 0 -11 -41
-27 -115 -44 -32 -8 -67 -22 -77 -30 -10 -10 -50 -20 -97 -25 -109 -12 -112
-13 -141 -29 -19 -12 -64 -15 -200 -14 -153 0 -183 3 -236 22 -33 11 -92 26
-130 32 -42 7 -100 26 -149 50 -44 21 -90 42 -103 45 -12 4 -34 17 -50 29 -15
12 -54 36 -87 52 -33 16 -82 49 -108 74 -124 116 -163 150 -169 150 -5 0 -8 5
-8 11 0 6 -20 34 -45 62 -25 28 -52 66 -60 84 -9 18 -22 36 -29 40 -21 12 -86
129 -86 155 0 13 -6 33 -13 44 -43 75 -57 107 -57 134 0 17 -9 51 -20 75 -11
24 -25 87 -31 141 -10 90 -9 99 7 111 14 10 366 13 1823 13 993 0 1816 3 1829
6 49 13 51 33 53 442 1 209 -2 385 -5 391 -6 9 -20 107 -31 221 -3 25 -16 81
-30 124 -14 43 -25 94 -25 112 0 18 -9 56 -20 84 -11 28 -20 69 -20 91 0 22
-7 54 -16 70 -10 21 -15 58 -16 112 0 135 -29 267 -59 267 -4 0 -10 14 -14 31
-4 17 -13 33 -21 36 -8 3 -14 11 -14 18 0 7 -11 29 -25 49 -14 20 -27 47 -31
61 -3 13 -13 30 -21 37 -8 7 -19 21 -24 33 -5 11 -23 38 -39 60 -17 22 -46 63
-64 90 -36 54 -118 137 -205 207 -29 24 -85 72 -124 107 -39 35 -88 74 -108
87 -21 13 -40 28 -44 33 -3 6 -34 27 -68 46 -34 20 -71 41 -81 48 -80 50 -112
67 -123 67 -7 0 -31 11 -53 25 -23 14 -55 28 -73 32 -18 3 -45 14 -62 23 -16
9 -52 22 -80 29 -27 7 -64 21 -82 31 -17 10 -58 21 -90 25 -32 4 -83 15 -113
26 -58 19 -183 41 -335 59 -49 6 -110 15 -135 21 -25 5 -139 12 -255 14 -180
4 -222 2 -295 -14z m586 -1146 c12 -8 40 -19 61 -24 53 -13 144 -48 157 -61 5
-5 18 -10 27 -10 21 0 50 -13 104 -45 22 -13 58 -34 80 -45 62 -33 79 -43 115
-70 53 -40 126 -116 175 -185 11 -15 37 -50 58 -78 20 -29 37 -55 37 -60 0 -5
9 -21 19 -36 11 -15 23 -40 27 -57 4 -16 15 -45 26 -64 10 -19 18 -41 18 -49
0 -7 9 -28 19 -45 10 -17 22 -57 26 -89 3 -33 11 -70 16 -84 12 -34 3 -62 -24
-71 -12 -4 -562 -5 -1222 -2 l-1200 5 -3 38 c-2 24 4 50 16 70 23 40 72 180
72 207 0 11 4 20 10 20 5 0 23 28 40 63 51 105 89 160 185 273 11 12 35 41 53
63 33 39 158 131 179 131 5 0 23 11 39 25 16 14 49 32 74 41 25 9 52 20 60 25
37 21 78 38 109 43 19 3 42 12 50 20 9 8 53 19 99 25 45 6 92 16 104 22 11 6
55 13 97 16 42 3 77 7 79 8 12 10 198 -7 218 -20z" fill="#1B7D34"/>
  <path d="M42679 6736 c-2 -2 -31 -6 -64 -9 -33 -3 -89 -12 -125 -21 -36 -8
-94 -18 -130 -21 -159 -14 -182 -17 -215 -30 -19 -8 -67 -20 -107 -25 -39 -6
-79 -17 -87 -24 -9 -8 -29 -18 -46 -21 -60 -14 -197 -65 -253 -95 -31 -16 -62
-30 -68 -30 -6 0 -17 -6 -23 -14 -7 -8 -24 -17 -39 -21 -14 -3 -44 -20 -66
-36 -22 -16 -46 -29 -53 -29 -7 0 -17 -9 -23 -20 -6 -11 -45 -43 -88 -72 -42
-29 -99 -72 -125 -97 -85 -79 -218 -256 -257 -341 -12 -25 -30 -61 -41 -80
-51 -89 -111 -242 -128 -325 -5 -22 -11 -80 -15 -130 -3 -49 -9 -101 -11 -115
-14 -65 -3 -370 16 -431 6 -19 14 -62 19 -97 4 -35 15 -71 24 -81 9 -10 19
-39 22 -65 4 -26 12 -53 18 -59 7 -7 20 -34 31 -62 18 -49 73 -137 137 -223
41 -54 225 -230 269 -257 17 -11 51 -31 74 -45 23 -14 62 -38 86 -54 52 -35
114 -71 149 -87 14 -6 41 -20 61 -30 20 -11 43 -19 50 -19 8 0 34 -14 58 -30
24 -17 52 -30 61 -30 9 0 37 -11 61 -23 24 -13 75 -30 112 -37 37 -7 75 -19
83 -27 8 -8 20 -16 27 -17 6 -1 26 -9 42 -18 17 -8 57 -18 89 -22 33 -4 65
-11 72 -17 6 -5 43 -12 80 -15 38 -3 90 -12 115 -20 26 -8 69 -17 97 -20 28
-3 68 -12 89 -20 21 -9 63 -20 95 -24 32 -5 82 -20 110 -34 53 -25 87 -34 144
-35 16 -1 39 -9 50 -20 27 -24 52 -37 91 -44 49 -9 210 -105 280 -165 109 -94
145 -187 142 -362 -1 -85 -5 -110 -20 -132 -11 -14 -19 -32 -19 -40 0 -39
-154 -218 -200 -233 -11 -4 -20 -10 -20 -15 0 -5 -22 -16 -49 -25 -27 -9 -55
-23 -61 -31 -7 -7 -21 -14 -31 -14 -10 0 -21 -4 -24 -10 -3 -5 -15 -10 -26
-10 -11 0 -34 -7 -52 -17 -41 -21 -218 -37 -412 -37 -156 0 -169 3 -290 59
-16 8 -42 19 -57 24 -16 6 -28 15 -28 20 0 5 -20 16 -43 24 -24 8 -63 28 -87
43 -24 16 -50 34 -59 39 -22 14 -155 128 -159 137 -3 7 -53 73 -73 96 -19 23
-55 95 -63 126 -4 15 -14 35 -21 43 -8 8 -15 22 -15 31 0 10 -6 26 -14 37 -7
11 -16 32 -19 47 -7 29 -62 68 -94 68 -11 0 -34 -7 -52 -16 -18 -9 -60 -20
-94 -24 -34 -5 -79 -15 -100 -24 -20 -9 -65 -19 -100 -22 -34 -3 -78 -12 -98
-19 -19 -7 -69 -17 -110 -21 -41 -4 -88 -13 -105 -20 -17 -7 -57 -16 -89 -19
-31 -3 -69 -12 -83 -19 -15 -8 -54 -17 -87 -21 -60 -6 -130 -18 -217 -37 -25
-5 -54 -18 -64 -29 -17 -19 -17 -21 0 -49 9 -16 20 -53 23 -82 4 -29 14 -66
24 -83 9 -16 20 -48 24 -70 4 -22 10 -44 15 -50 4 -5 15 -35 25 -65 23 -69 88
-192 129 -245 17 -22 37 -52 44 -67 6 -16 16 -28 22 -28 5 0 10 -8 10 -18 0
-26 70 -107 167 -192 15 -14 41 -41 57 -60 16 -19 52 -54 80 -78 28 -23 70
-60 94 -82 24 -22 51 -40 62 -40 10 0 32 -11 48 -25 17 -14 35 -25 42 -25 7 0
26 -10 43 -22 18 -13 46 -30 62 -39 52 -29 140 -72 150 -74 6 -2 51 -19 100
-38 50 -20 119 -43 155 -52 36 -8 81 -22 100 -30 29 -11 83 -25 125 -30 36 -5
97 -19 135 -30 88 -26 218 -37 470 -39 273 -3 372 3 466 27 32 9 95 18 139 22
73 5 190 34 349 86 33 10 69 19 81 19 12 0 25 4 31 8 5 5 29 14 54 21 42 12
152 59 195 84 11 6 40 21 65 33 44 21 75 51 130 125 14 18 52 62 84 96 33 35
67 77 77 92 21 34 43 62 84 107 64 70 145 175 145 190 0 3 18 29 40 59 l40 54
0 749 c0 734 0 750 -20 775 -11 14 -20 29 -20 35 0 5 -9 17 -20 27 -11 10 -20
23 -20 28 0 9 -16 31 -95 136 -43 58 -222 225 -269 251 -31 18 -56 35 -56 39
0 6 -10 12 -125 69 -33 16 -73 37 -90 46 -16 9 -37 16 -46 16 -9 0 -22 7 -29
15 -19 23 -137 75 -169 75 -15 0 -36 9 -45 19 -12 13 -42 23 -89 31 -40 6 -80
15 -89 20 -10 6 -30 10 -46 10 -15 0 -36 6 -47 14 -11 7 -42 16 -68 19 -27 4
-71 18 -99 32 -27 14 -64 25 -81 25 -28 0 -93 17 -152 41 -11 4 -45 13 -75 20
-30 6 -74 20 -97 30 -23 11 -49 19 -58 19 -16 0 -57 11 -180 50 -33 10 -73 21
-89 25 -28 6 -156 64 -166 75 -3 3 -27 22 -55 42 -66 48 -109 95 -125 138 -7
19 -22 47 -32 63 -15 21 -20 50 -23 135 -4 92 -1 113 16 152 37 81 53 110 61
110 5 0 8 6 8 13 0 15 83 99 135 135 22 16 65 41 95 55 30 15 66 34 80 42 14
8 33 15 43 15 10 0 31 7 47 15 33 17 322 28 387 15 65 -14 271 -106 341 -153
65 -43 173 -158 209 -221 29 -51 82 -169 88 -196 13 -61 131 -105 176 -64 9 8
43 19 75 24 33 4 71 13 85 18 14 6 52 13 85 17 32 4 67 12 78 17 10 6 53 17
95 24 91 17 91 17 116 30 11 6 39 12 62 13 23 1 79 13 124 26 46 14 95 25 110
25 60 0 59 -2 59 169 0 116 -4 162 -15 181 -22 40 -49 89 -98 182 -25 48 -50
93 -56 100 -40 47 -101 132 -101 142 0 25 -208 249 -253 272 -15 8 -36 23 -47
32 -10 9 -29 27 -42 39 -13 12 -51 34 -84 48 -32 15 -66 33 -74 40 -8 7 -28
15 -44 19 -16 4 -43 18 -61 32 -17 13 -39 24 -47 24 -9 0 -21 7 -28 15 -7 8
-30 20 -51 25 -21 6 -44 16 -51 23 -31 30 -65 47 -95 47 -19 0 -59 9 -91 21
-31 11 -109 27 -172 35 -63 7 -128 16 -145 19 -152 25 -373 43 -386 31z" fill="#1B7D34"/>
  <path d="M31670 9269 c0 -6 14 -8 36 -5 22 4 33 2 29 -4 -3 -5 -2 -10 3 -10 6
0 12 7 16 15 4 12 -4 15 -39 15 -25 0 -45 -5 -45 -11z" fill="#E8A838"/>
  <path d="M31777 9264 c3 -8 12 -13 19 -10 8 3 11 0 7 -10 -3 -7 -17 -14 -32
-15 -14 0 -37 -2 -51 -3 -14 -2 -35 0 -47 5 -18 6 -29 3 -50 -17 -15 -13 -32
-23 -39 -20 -7 3 -20 -4 -30 -15 -19 -22 -70 -49 -91 -49 -7 0 -13 -4 -13 -10
0 -5 -7 -10 -16 -10 -10 0 -14 -6 -11 -14 4 -10 -2 -18 -16 -22 -24 -7 -77
-58 -77 -74 0 -5 -18 -21 -40 -35 -22 -14 -40 -31 -40 -39 0 -16 -27 -29 -41
-20 -5 3 -9 0 -9 -6 0 -6 -6 -8 -12 -4 -10 5 -10 4 -1 -6 15 -17 -20 -90 -43
-90 -8 0 -12 -4 -9 -10 3 -5 1 -10 -4 -10 -6 0 -11 -9 -11 -19 0 -10 -7 -21
-15 -25 -10 -3 -15 -19 -15 -46 0 -27 -4 -39 -11 -34 -8 4 -8 0 0 -15 14 -26
7 -41 -19 -41 -18 0 -34 -31 -29 -56 1 -5 0 -11 -1 -14 -1 -3 -4 -18 -6 -35
-3 -16 -9 -43 -14 -60 -9 -27 -11 -88 -11 -231 0 -28 5 -71 11 -95 6 -24 12
-56 13 -72 2 -15 9 -33 17 -40 10 -9 12 -9 6 1 -4 6 -2 12 4 12 7 0 10 -6 7
-12 -19 -46 -20 -51 -10 -45 14 9 36 -21 57 -78 11 -27 25 -54 33 -58 7 -4 13
-16 13 -26 0 -10 11 -39 25 -65 14 -26 25 -53 25 -61 0 -8 6 -12 14 -9 11 4
18 -4 24 -28 5 -18 5 -35 0 -36 -4 -2 -5 -8 -2 -13 4 -6 11 -6 19 1 10 8 17 6
27 -8 7 -10 27 -27 43 -37 17 -10 35 -23 40 -29 29 -32 97 -77 135 -90 24 -8
47 -22 52 -30 5 -8 17 -13 28 -11 18 3 25 -5 21 -27 0 -4 6 -5 15 -1 10 4 18
-4 27 -26 l11 -31 79 3 c43 2 80 0 83 -4 2 -4 13 -6 24 -4 11 2 20 -1 20 -6 0
-6 10 -9 22 -7 15 2 26 -4 34 -20 14 -28 27 -42 19 -20 -4 9 0 19 7 24 7 4 10
4 6 -1 -9 -9 9 -45 22 -45 6 0 10 8 11 18 0 10 3 12 6 5 6 -17 23 -17 23 0 0
8 7 14 15 14 11 0 12 -4 4 -13 -20 -25 35 -11 62 16 18 17 38 25 60 25 22 0
39 6 47 18 9 12 18 15 25 8 16 -12 90 -10 99 3 5 7 8 7 8 -1 0 -7 5 -13 11
-13 6 0 9 6 6 14 -9 22 44 64 76 61 17 -2 30 2 33 10 3 7 13 13 22 13 24 -2
89 31 96 47 3 8 19 21 36 30 17 9 54 38 82 65 29 28 59 52 67 55 18 5 46 55
55 98 4 15 13 27 21 27 13 0 21 26 16 53 -1 5 3 6 8 3 8 -5 39 23 34 31 -8 10
-1 31 15 49 31 33 60 97 66 143 2 24 10 48 18 52 8 5 9 9 2 9 -7 0 -12 20 -13
50 -1 28 -2 65 -4 83 -1 20 4 38 16 49 10 9 18 19 17 22 -1 4 2 20 5 37 5 21
3 34 -5 39 -7 4 -10 17 -7 29 3 12 2 19 -3 16 -10 -6 -22 24 -14 37 4 6 0 14
-7 19 -9 6 -10 9 -2 9 8 0 9 9 5 28 -4 15 -7 50 -7 79 0 40 -3 49 -12 41 -13
-11 -13 -10 -17 41 0 10 -9 28 -18 38 -10 11 -18 28 -18 37 0 10 -13 38 -30
63 -16 24 -30 50 -30 57 0 8 -7 16 -15 20 -8 3 -15 11 -15 18 0 7 -12 24 -25
37 -14 12 -22 27 -19 32 3 5 -1 6 -8 4 -8 -3 -14 2 -15 13 -2 23 -67 92 -87
92 -8 0 -21 8 -28 18 -16 23 -53 44 -62 35 -3 -3 -6 1 -6 10 0 10 -4 17 -10
17 -5 0 -20 11 -34 25 -14 14 -35 27 -48 29 -13 3 -23 5 -23 6 0 1 -11 3 -25
6 -14 2 -30 11 -36 19 -6 8 -33 16 -65 18 -67 4 -79 10 -72 40 3 16 2 18 -5 8
-5 -7 -12 -9 -15 -4 -10 16 -379 11 -384 -4 -6 -18 -23 -16 -23 2 0 10 -10 15
-30 15 -22 0 -28 -4 -23 -16z" fill="#E8A838"/>
</g>
</svg>
